<svg width="840" height="442" viewBox="0 0 840 442" fill="none" xmlns="http://www.w3.org/2000/svg">
<path d="M82 325L178 34M226 325L322 34M370 117.143H70M334 241.857H34" stroke="black" stroke-width="66.6667" stroke-linecap="round" stroke-linejoin="round"/>
<path d="M408.547 202.286H440.69V234.429H408.547V202.286ZM408.547 250.5H440.69V363H408.547V250.5ZM456.887 250.5H472.958V266.571H456.887V250.5ZM456.887 234.429H472.958V250.5H456.887V234.429ZM472.958 234.429H489.03V250.5H472.958V234.429ZM472.958 250.5H489.03V266.571H472.958V250.5ZM472.958 266.571H489.03V282.643H472.958V266.571ZM472.958 282.643H489.03V298.714H472.958V282.643ZM472.958 298.714H489.03V314.786H472.958V298.714ZM456.887 298.714H472.958V314.786H456.887V298.714ZM456.887 282.643H472.958V298.714H456.887V282.643ZM456.887 266.571H472.958V282.643H456.887V266.571ZM456.887 314.786H472.958V330.857H456.887V314.786ZM472.958 314.786H489.03V330.857H472.958V314.786ZM472.958 330.857H489.03V346.929H472.958V330.857ZM472.958 346.929H489.03V363H472.958V346.929ZM456.887 346.929H472.958V363H456.887V346.929ZM456.887 330.857H472.958V346.929H456.887V330.857ZM537.244 346.929H553.315V363H537.244V346.929ZM553.315 346.929H569.387V363H553.315V346.929ZM553.315 330.857H569.387V346.929H553.315V330.857ZM553.315 314.786H569.387V330.857H553.315V314.786ZM553.315 298.714H569.387V314.786H553.315V298.714ZM553.315 282.643H569.387V298.714H553.315V282.643ZM553.315 266.571H569.387V282.643H553.315V266.571ZM553.315 250.5H569.387V266.571H553.315V250.5ZM537.244 282.643H553.315V298.714H537.244V282.643ZM537.244 298.714H553.315V314.786H537.244V298.714ZM537.244 314.786H553.315V330.857H537.244V314.786ZM537.244 330.857H553.315V346.929H537.244V330.857ZM537.244 266.571H553.315V282.643H537.244V266.571ZM489.03 250.5H505.101V266.571H489.03V250.5ZM505.101 250.5H521.172V266.571H505.101V250.5ZM521.172 250.5H537.244V266.571H521.172V250.5ZM521.172 234.429H537.244V250.5H521.172V234.429ZM537.244 234.429H553.315V250.5H537.244V234.429ZM537.244 250.5H553.315V266.571H537.244V250.5ZM505.101 234.429H521.172V250.5H505.101V234.429ZM681.929 234.429H698V250.5H681.929V234.429ZM665.857 234.429H681.929V250.5H665.857V234.429ZM649.786 234.429H665.857V250.5H649.786V234.429ZM633.714 234.429H649.786V250.5H633.714V234.429ZM617.643 234.429H633.714V250.5H617.643V234.429ZM617.643 250.5H633.714V266.571H617.643V250.5ZM633.714 250.5H649.786V266.571H633.714V250.5ZM649.786 250.5H665.857V266.571H649.786V250.5ZM665.857 250.5H681.929V266.571H665.857V250.5ZM681.929 250.5H698V266.571H681.929V250.5ZM601.571 234.429H617.643V250.5H601.571V234.429ZM601.571 250.5H617.643V266.571H601.571V250.5ZM601.571 266.571H617.643V282.643H601.571V266.571ZM585.5 266.571H601.571V282.643H585.5V266.571ZM585.5 250.5H601.571V266.571H585.5V250.5ZM585.5 282.643H601.571V298.714H585.5V282.643ZM585.5 298.714H601.571V314.786H585.5V298.714ZM601.571 314.786H617.643V330.857H601.571V314.786ZM601.571 298.714H617.643V314.786H601.571V298.714ZM601.571 282.643H617.643V298.714H601.571V282.643ZM585.5 314.786H601.571V330.857H585.5V314.786ZM601.571 330.857H617.643V346.929H601.571V330.857ZM617.643 330.857H633.714V346.929H617.643V330.857ZM633.714 330.857H649.786V346.929H633.714V330.857ZM665.857 330.857H681.929V346.929H665.857V330.857ZM681.929 330.857H698V346.929H681.929V330.857ZM681.929 314.786H698V330.857H681.929V314.786ZM665.857 314.786H681.929V330.857H665.857V314.786ZM649.786 314.786H665.857V330.857H649.786V314.786ZM633.714 314.786H649.786V330.857H633.714V314.786ZM617.643 314.786H633.714V330.857H617.643V314.786ZM665.857 298.714H681.929V314.786H665.857V298.714ZM665.857 282.643H681.929V298.714H665.857V282.643ZM665.857 266.571H681.929V282.643H665.857V266.571ZM681.929 266.571H698V282.643H681.929V266.571ZM681.929 282.643H698V298.714H681.929V282.643ZM681.929 298.714H698V314.786H681.929V298.714ZM665.857 346.929H681.929V363H665.857V346.929ZM665.857 363H681.929V379.071H665.857V363ZM681.929 363H698V379.071H681.929V363ZM681.929 346.929H698V363H681.929V346.929ZM585.5 363H601.571V379.071H585.5V363ZM601.571 363H617.643V379.071H601.571V363ZM601.571 379.071H617.643V395.143H601.571V379.071ZM617.643 379.071H633.714V395.143H617.643V379.071ZM617.643 363H633.714V379.071H617.643V363ZM633.714 363H649.786V379.071H633.714V363ZM649.786 363H665.857V379.071H649.786V363ZM665.857 379.071H681.929V395.143H665.857V379.071ZM649.786 379.071H665.857V395.143H649.786V379.071ZM633.714 379.071H649.786V395.143H633.714V379.071ZM714.113 330.857H730.185V346.929H714.113V330.857ZM730.185 330.857H746.256V346.929H730.185V330.857ZM730.185 346.929H746.256V363H730.185V346.929ZM714.113 346.929H730.185V363H714.113V346.929Z" fill="white"/>
</svg>
